<svg width="16" height="15" viewBox="0 0 16 15" fill="none" xmlns="http://www.w3.org/2000/svg">
<path d="M0.0833149 7.50021C0.0833149 7.21271 0.316648 6.97938 0.604148 6.97938L14.1233 6.97938L8.78082 1.72521C8.7298 1.67781 8.68881 1.62067 8.66027 1.55715C8.63173 1.49364 8.61621 1.42505 8.61464 1.35543C8.61307 1.28581 8.62547 1.21659 8.65111 1.15185C8.67676 1.08711 8.71512 1.02817 8.76394 0.978518C8.81276 0.928864 8.87104 0.889503 8.93533 0.862763C8.99963 0.836023 9.06863 0.822447 9.13826 0.822838C9.2079 0.823229 9.27674 0.837579 9.34073 0.86504C9.40472 0.8925 9.46256 0.932513 9.51082 0.982712L15.7558 7.12396L15.7671 7.1348C15.8211 7.18967 15.8622 7.25584 15.8876 7.32854C15.913 7.40124 15.9219 7.47865 15.9137 7.55521C15.9005 7.68045 15.8423 7.79665 15.75 7.8823L9.51082 14.0173C9.46256 14.0675 9.40472 14.1075 9.34073 14.135C9.27674 14.1624 9.2079 14.1768 9.13826 14.1772C9.06863 14.1776 8.99963 14.164 8.93533 14.1372C8.87104 14.1105 8.81276 14.0711 8.76394 14.0215C8.71512 13.9718 8.67676 13.9129 8.65111 13.8482C8.62547 13.7834 8.61307 13.7142 8.61464 13.6446C8.61621 13.575 8.63173 13.5064 8.66027 13.4429C8.68881 13.3793 8.7298 13.3222 8.78082 13.2748L14.1233 8.02063H0.604148C0.316648 8.02063 0.0833149 7.78813 0.0833149 7.50021Z" fill="#19AD5C"/>
</svg>
